<svg width="210" height="210" viewBox="0 0 210 210" fill="none" xmlns="http://www.w3.org/2000/svg">
<path d="M140.672 147.96C119.988 150.492 83.7593 147.438 62.9197 144.683C48.5181 143.134 39.1867 142.298 32.7383 141.731C86.9562 151.467 122.556 165.584 145.666 197.772C147.562 200.413 150.743 199.11 150.275 196.259C148.022 182.53 144.518 164.934 140.672 147.96Z" fill="black"/>
<path d="M172.107 115.556C125.459 137.742 80.9602 140.689 45.5 140.355C45.5 140.355 31.4572 140.861 27.1035 140.849C68.3751 147.794 133.423 147.776 170 133.15C174.697 131.271 174.393 128.056 174.393 126.326C174.393 124.596 172.107 115.556 172.107 115.556Z" fill="black"/>
<path d="M8.3194 50.6713C57.2539 53.9373 119.294 41.4002 170.762 4.43C172.451 2.78812 175.37 3.40009 175.874 5.51961L194.988 86.942C195.611 89.569 194.559 92.3751 192.277 94.2259C152.335 124.061 77.0013 141.449 27.6116 140.886C26.2336 140.886 25.0778 140.065 24.7963 138.856L4.89659 54.1342C4.46688 52.2833 6.24694 50.533 8.3194 50.6713Z" fill="black"/>
</svg>
