<svg width="922" height="210" viewBox="0 0 922 210" fill="none" xmlns="http://www.w3.org/2000/svg">
<path d="M296.534 58.5539C317.251 58.5539 337.171 75.6786 337.171 100.89C337.171 125.943 317.251 143.068 296.534 143.068C285.538 143.068 277.57 140.055 271.195 133.712V172.877H250V60.4567H270.398V68.7019C276.932 61.8837 285.06 58.5539 296.534 58.5539ZM293.187 123.564C306.255 123.564 315.976 113.734 315.976 100.89C315.976 87.8879 306.255 78.0571 293.187 78.0571C280.119 78.0571 270.398 87.8879 270.398 100.89C270.398 113.734 280.119 123.564 293.187 123.564Z" fill="white"/>
<path d="M408.157 68.7019V60.4567H428.556V141.165H408.157V132.92C401.623 139.738 393.496 143.068 382.022 143.068C361.305 143.068 341.384 125.943 341.384 100.89C341.384 75.6786 361.305 58.5539 382.022 58.5539C393.496 58.5539 401.623 61.8837 408.157 68.7019ZM385.368 123.564C398.436 123.564 408.157 113.734 408.157 100.89C408.157 87.8879 398.436 78.0571 385.368 78.0571C372.301 78.0571 362.58 87.8879 362.58 100.89C362.58 113.734 372.301 123.564 385.368 123.564Z" fill="white"/>
<path d="M500.338 68.7019V60.4567H520.737V134.03C520.737 157.655 507.191 177 478.346 177C454.92 177 441.215 163.839 437.231 146.397H458.904C462.091 152.581 467.828 157.497 478.187 157.497C492.211 157.497 499.542 148.142 499.542 136.408V130.066C494.123 135.457 485.996 139.421 474.522 139.421C454.442 139.421 435.159 123.882 435.159 98.9873C435.159 74.093 454.283 58.5539 474.362 58.5539C485.677 58.5539 493.805 61.8837 500.338 68.7019ZM478.187 120.71C491.095 120.71 500.338 111.355 500.338 98.9873C500.338 86.778 491.095 77.2643 478.187 77.2643C465.119 77.2643 456.354 86.778 456.354 98.9873C456.354 111.355 465.119 120.71 478.187 120.71Z" fill="white"/>
<path d="M569.931 58.5539C595.11 58.5539 617.262 80.5941 611.365 108.66H549.214C551.605 119.442 558.935 125.943 570.091 125.943C578.855 125.943 584.274 122.772 588.099 116.746H609.453C603.716 131.017 590.33 143.068 569.931 143.068C547.62 143.068 527.222 126.419 527.222 100.89C527.222 75.203 547.62 58.5539 569.931 58.5539ZM569.931 75.6786C559.254 75.6786 551.923 81.8626 549.373 92.3277H590.648C588.736 83.1311 582.361 75.6786 569.931 75.6786Z" fill="white"/>
<path d="M640.785 141.165H619.59V27H640.785V141.165Z" fill="white"/>
<path d="M692.147 143.068C669.04 143.068 648.163 126.419 648.163 100.89C648.163 75.203 669.04 58.5539 692.147 58.5539C715.255 58.5539 736.131 75.203 736.131 100.89C736.131 126.419 715.255 143.068 692.147 143.068ZM692.147 123.564C705.215 123.564 714.936 113.734 714.936 100.89C714.936 87.8879 705.215 78.0571 692.147 78.0571C679.079 78.0571 669.358 87.8879 669.358 100.89C669.358 113.734 679.079 123.564 692.147 123.564Z" fill="white"/>
<path d="M784.285 143.068C761.177 143.068 740.301 126.419 740.301 100.89C740.301 75.203 761.177 58.5539 784.285 58.5539C807.392 58.5539 828.269 75.203 828.269 100.89C828.269 126.419 807.392 143.068 784.285 143.068ZM784.285 123.564C797.353 123.564 807.074 113.734 807.074 100.89C807.074 87.8879 797.353 78.0571 784.285 78.0571C771.217 78.0571 761.496 87.8879 761.496 100.89C761.496 113.734 771.217 123.564 784.285 123.564Z" fill="white"/>
<path d="M881.363 58.5539C902.08 58.5539 922 75.6786 922 100.89C922 125.943 902.08 143.068 881.363 143.068C870.367 143.068 862.399 140.055 856.024 133.712V172.877H834.829V60.4567H855.227V68.7019C861.761 61.8837 869.888 58.5539 881.363 58.5539ZM878.016 123.564C891.084 123.564 900.805 113.734 900.805 100.89C900.805 87.8879 891.084 78.0571 878.016 78.0571C864.948 78.0571 855.227 87.8879 855.227 100.89C855.227 113.734 864.948 123.564 878.016 123.564Z" fill="white"/>
<path d="M140.672 147.96C119.988 150.492 83.7593 147.438 62.9197 144.683C48.5181 143.134 39.1867 142.298 32.7383 141.731C86.9562 151.467 122.556 165.584 145.666 197.772C147.562 200.413 150.743 199.11 150.275 196.259C148.022 182.53 144.518 164.934 140.672 147.96Z" fill="white"/>
<path d="M172.108 115.556C125.46 137.742 80.961 140.689 45.5008 140.355C45.5008 140.355 31.458 140.861 27.1043 140.849C68.3759 147.794 133.424 147.776 170.001 133.15C174.698 131.271 174.394 128.056 174.394 126.326C174.394 124.596 172.108 115.556 172.108 115.556Z" fill="white"/>
<path d="M8.31842 50.6718C57.2529 53.9378 119.293 41.4007 170.761 4.43049C172.45 2.78861 175.369 3.40058 175.873 5.5201L194.987 86.9425C195.61 89.5695 194.558 92.3756 192.276 94.2264C152.334 124.061 77.0003 141.449 27.6106 140.886C26.2326 140.886 25.0768 140.065 24.7953 138.856L4.89561 54.1347C4.4659 52.2838 6.24596 50.5335 8.31842 50.6718Z" fill="white"/>
</svg>
